<svg id="Capa_1" data-name="Capa 1" xmlns="http://www.w3.org/2000/svg" viewBox="0 0 67.24 44.01"><defs><style>.cls-1{fill:#5b5959;}</style></defs><title>Sin título-1</title><path class="cls-1" d="M34.42,26.44c5.85-5.78,11.51-11.39,17.19-17a33.41,33.41,0,0,1,3.66-3.39,5.47,5.47,0,0,1,7.65.64c1.94,2.19,2,4.63,0,7.28a9.56,9.56,0,0,1-1,1.12Q48.61,28.26,35.25,41.4a4.05,4.05,0,0,1-1.15.46c-.77-.66-1.67-1.35-2.47-2.15Q19.72,28,7.83,16.17c-.47-.47-1-.92-1.4-1.42C4,12,3.77,9,5.84,6.71c2.3-2.54,5.49-2.71,8.38,0C19.78,12,25.14,17.47,30.6,22.85,31.76,24,33,25.08,34.42,26.44Z"/></svg>