<svg id="Capa_1" data-name="Capa 1" xmlns="http://www.w3.org/2000/svg" viewBox="0 0 148.16 146.86"><defs><style>.cls-1{fill:#cc2a43;}.cls-2{fill:#fff;}</style></defs><title>Sin título-1</title><path class="cls-1" d="M144.13,72.6c.25,39.24-32.38,72.51-73.51,71.29A71.32,71.32,0,1,1,144.13,72.6ZM68.8,91.66c.33.45.56.82.83,1.15a16.83,16.83,0,0,0,11.74,6,27.11,27.11,0,0,0,18.09-4.62,33.79,33.79,0,0,0,12.22-15.1,52.35,52.35,0,0,0,4.17-21.32,31.55,31.55,0,0,0-4-15.47A35,35,0,0,0,91,25.46a45.6,45.6,0,0,0-29.46.6c-14.37,5.05-23.49,15-26.2,30.22a30.39,30.39,0,0,0,2.21,17.85,17.88,17.88,0,0,0,9.61,9.72,2.1,2.1,0,0,0,3.17-1.56c.38-1.45.67-2.92,1.13-4.34A3.69,3.69,0,0,0,50.57,74a14.54,14.54,0,0,1-3.18-6.13,24.09,24.09,0,0,1-.1-11.23c1.94-9.19,7.05-16,15.58-20a31.73,31.73,0,0,1,19.84-2.25,22.52,22.52,0,0,1,12.05,6C99.1,44.68,100.94,50,101.1,56a49.88,49.88,0,0,1-1.5,13.55,32.87,32.87,0,0,1-6.1,13c-2.84,3.47-6.35,5.85-11,6a9.37,9.37,0,0,1-9-4.91,9.24,9.24,0,0,1-.58-7.37c1.29-4.42,2.6-8.83,3.86-13.25A24,24,0,0,0,78,54.77a8.5,8.5,0,0,0-2.67-6.11c-2.61-2.28-5.63-2.47-8.74-1.31-3.44,1.29-5.55,4-6.85,7.29-2.17,5.51-1.8,11,.2,16.52a2.21,2.21,0,0,1,.14,1.13q-3,12.7-6,25.39c-1.31,5.53-2.75,11-2.71,16.79a88.35,88.35,0,0,0,.93,12.59,1.07,1.07,0,0,0,.6.78,1.28,1.28,0,0,0,1-.38,14.46,14.46,0,0,0,1.32-1.69c3.64-5,7-10.12,8.84-16,1.34-4.2,2.3-8.53,3.42-12.8C67.91,95.24,68.34,93.5,68.8,91.66Z"/><path class="cls-2" d="M68.8,91.66c-.46,1.84-.89,3.58-1.35,5.3-1.12,4.27-2.08,8.6-3.42,12.8-1.88,5.89-5.2,11.06-8.84,16a14.46,14.46,0,0,1-1.32,1.69,1.28,1.28,0,0,1-1,.38,1.07,1.07,0,0,1-.6-.78,88.35,88.35,0,0,1-.93-12.59c0-5.76,1.4-11.26,2.71-16.79q3-12.69,6-25.39a2.21,2.21,0,0,0-.14-1.13c-2-5.48-2.37-11-.2-16.52,1.3-3.31,3.41-6,6.85-7.29,3.11-1.16,6.13-1,8.74,1.31A8.5,8.5,0,0,1,78,54.77,24,24,0,0,1,76.77,63c-1.26,4.42-2.57,8.83-3.86,13.25a9.24,9.24,0,0,0,.58,7.37,9.37,9.37,0,0,0,9,4.91c4.64-.12,8.15-2.5,11-6a32.87,32.87,0,0,0,6.1-13A49.88,49.88,0,0,0,101.1,56c-.16-6-2-11.3-6.34-15.59a22.52,22.52,0,0,0-12.05-6,31.73,31.73,0,0,0-19.84,2.25c-8.53,4-13.64,10.86-15.58,20a24.09,24.09,0,0,0,.1,11.23A14.54,14.54,0,0,0,50.57,74,3.69,3.69,0,0,1,51.45,78c-.46,1.42-.75,2.89-1.13,4.34a2.1,2.1,0,0,1-3.17,1.56,17.88,17.88,0,0,1-9.61-9.72,30.39,30.39,0,0,1-2.21-17.85C38,41.05,47.16,31.11,61.53,26.06A45.6,45.6,0,0,1,91,25.46a35,35,0,0,1,20.85,16.86,31.55,31.55,0,0,1,4,15.47,52.35,52.35,0,0,1-4.17,21.32,33.79,33.79,0,0,1-12.22,15.1,27.11,27.11,0,0,1-18.09,4.62,16.83,16.83,0,0,1-11.74-6C69.36,92.48,69.13,92.11,68.8,91.66Z"/></svg>