<svg id="Capa_1" data-name="Capa 1" xmlns="http://www.w3.org/2000/svg" viewBox="0 0 114.38 127.37"><defs><style>.cls-1{fill:#5b5959;}</style></defs><title>Sin título-1</title><path class="cls-1" d="M8.42,122.26c2.07-8.32,3.71-15.42,5.64-22.45a10.68,10.68,0,0,0-1.6-9.75C-9.75,57.45,8.26,13.26,47.1,6.11,81.2-.16,106,24.36,110.28,49.68c5.52,32.43-16.86,57.79-41.92,62.59-9.71,1.86-19.66,2.13-29-1.8-4.43-1.86-7.81-1.26-11.61,1.2-4.6,3-9.5,5.52-14.29,8.2C12.18,120.58,10.83,121.12,8.42,122.26ZM57.13,67.54a8.44,8.44,0,0,0,8.06-8.39,8.57,8.57,0,0,0-7.94-8.07c-4.29-.16-8.2,3.73-8.25,8.19A8.3,8.3,0,0,0,57.13,67.54ZM87.18,51.07c-4.12-.09-8,3.62-8.16,7.9A8.29,8.29,0,0,0,87,67.54a8.41,8.41,0,0,0,8.23-7.83A8.63,8.63,0,0,0,87.18,51.07Zm-52,8.41c.06-4.37-4-8.48-8.22-8.42A8.43,8.43,0,0,0,19,59.2a8.27,8.27,0,0,0,8.17,8.34A8.39,8.39,0,0,0,35.17,59.48Z"/></svg>