<?xml version="1.0" encoding="utf-8"?>
<!-- Generator: Adobe Illustrator 23.0.4, SVG Export Plug-In . SVG Version: 6.00 Build 0)  -->
<svg version="1.1" id="Capa_1" xmlns="http://www.w3.org/2000/svg" xmlns:xlink="http://www.w3.org/1999/xlink" x="0px" y="0px"
	 viewBox="0 0 93.3 34.1" style="enable-background:new 0 0 93.3 34.1;" xml:space="preserve">
<style type="text/css">
	.st0{fill:#010001;}
</style>
<title>icons</title>
<path class="st0" d="M23.1,17.8c-0.2,4.4-3.6,7.9-8,8c-4.6-0.1-8.2-3.8-8.2-8.3c0.1-4.4,3.6-7.9,7.9-8.1
	C19.2,9.3,23.2,13.5,23.1,17.8z"/>
<path class="st0" d="M53.2,17.5c0,4.5-3.6,8.2-8.1,8.4c-4.5-0.1-8.1-3.8-8.1-8.3c0-4.5,4-8.4,8.2-8.2C49.5,9.7,52.9,13.2,53.2,17.5z
	"/>
<path class="st0" d="M83.1,18.1c-0.3,4.3-3.9,7.7-8.2,7.8c-4.5-0.2-8.1-4-7.9-8.6c0.2-4.3,4-8,8.2-7.9C79.7,9.8,83.2,13.5,83.1,18.1
	z"/>
</svg>
