<svg id="Capa_1" data-name="Capa 1" xmlns="http://www.w3.org/2000/svg" viewBox="0 0 105.18 125.43"><defs><style>.cls-1{fill:#5b5959;}</style></defs><title>Sin título-1</title><path class="cls-1" d="M3.21,96.91a29.5,29.5,0,0,1,3.68-13A110.84,110.84,0,0,1,15.64,70.6,9.59,9.59,0,0,0,18,64.35C17.93,55.2,18.21,46,18,36.89,17.48,19.73,32.27,2.15,53.07,2.22c19.23.07,34.47,15.23,34.94,35,.2,8.65.17,17.31,0,26a11.25,11.25,0,0,0,3.16,8.44,47.19,47.19,0,0,1,11.65,25.29Z"/><path class="cls-1" d="M38.31,107.44H67.45c.47,8-5.81,14.54-14,14.81C44.93,122.54,38.45,116.41,38.31,107.44Z"/></svg>