<svg id="Capa_1" data-name="Capa 1" xmlns="http://www.w3.org/2000/svg" viewBox="0 0 93.29 85.16"><title>mssore</title><path d="M11.39,70.28A14.62,14.62,0,0,1,9.18,69a4.4,4.4,0,0,1-1.46-3.61c0-5.36,0-10.72,0-16.08,0-2.72-.05-5.44,0-8.16a4.6,4.6,0,0,1,7.05-3.71,4.5,4.5,0,0,1,2.11,4.09V61.05H77.63v-.93q0-9.25,0-18.53a4.54,4.54,0,0,1,4-4.82,4.42,4.42,0,0,1,5,4.12c.07,4.23,0,8.45,0,12.67V65.13c0,2.78-.82,4-3.42,5,0,0-.06.07-.09.11Z"/><path d="M42.39,27.75c-.76.84-1.49,1.7-2.29,2.5Q36.2,34.14,32.26,38c-1.82,1.78-3.74,2.1-5.65,1a4.39,4.39,0,0,1-1.21-6.78c.19-.23.38-.44.59-.65L43.68,13.83c1.81-1.8,3.86-2.15,5.8-1a6.6,6.6,0,0,1,1.16.95q8.93,8.9,17.81,17.8c2.52,2.52,2,6-1,7.5a4.73,4.73,0,0,1-5.56-1.16q-4.74-4.71-9.47-9.46c-.2-.2-.41-.38-.74-.7v1.07c0,12.56,0,9.13,0,21.69a4.51,4.51,0,0,1-9,.54c0-.34,0-.69,0-1V28Z"/></svg>